{"asset":{"version":"2.0","generator":"Blockbench 5.0.7 glTF exporter"},"scenes":[{"nodes":[3],"name":"blockbench_export"}],"scene":0,"nodes":[{"translation":[0,0.625,0],"name":"bone3"},{"translation":[0,0.625,0],"name":"bone2","children":[0]},{"translation":[0,-0.375,0],"name":"bone","children":[1]},{"name":"armature","mesh":0,"children":[2],"skin":0}],"bufferViews":[{"buffer":0,"byteOffset":0,"byteLength":288,"target":34962,"byteStride":12},{"buffer":0,"byteOffset":288,"byteLength":288,"target":34962,"byteStride":12},{"buffer":0,"byteOffset":576,"byteLength":192,"target":34962,"byteStride":8},{"buffer":0,"byteOffset":768,"byteLength":192,"target":34962,"byteStride":8},{"buffer":0,"byteOffset":960,"byteLength":384,"target":34962,"byteStride":16},{"buffer":0,"byteOffset":1344,"byteLength":72,"target":34963},{"buffer":0,"byteOffset":1416,"byteLength":192},{"buffer":0,"byteOffset":1608,"byteLength":12},{"buffer":0,"byteOffset":1620,"byteLength":48},{"buffer":0,"byteOffset":1668,"byteLength":12},{"buffer":0,"byteOffset":1680,"byteLength":48},{"buffer":0,"byteOffset":1728,"byteLength":12},{"buffer":0,"byteOffset":1740,"byteLength":48}],"buffers":[{"byteLength":1788,"uri":"data:application/octet-stream;base64,"}],"accessors":[{"bufferView":0,"componentType":5126,"count":24,"max":[0.5,1.5,0.5],"min":[-0.5,-0.5,-0.5],"type":"VEC3"},{"bufferView":1,"componentType":5126,"count":24,"max":[1,1,1],"min":[-1,-1,-1],"type":"VEC3"},{"bufferView":2,"componentType":5126,"count":24,"max":[1,1.0000499486923218],"min":[0,0],"type":"VEC2"},{"bufferView":3,"componentType":5123,"count":24,"max":[2,2,0,0],"min":[0,0,0,0],"type":"VEC4"},{"bufferView":4,"componentType":5126,"count":24,"max":[1,0.5,0,0],"min":[0.5,0,0,0],"type":"VEC4"},{"bufferView":5,"componentType":5123,"count":36,"max":[23],"min":[0],"type":"SCALAR"},{"bufferView":6,"componentType":5126,"count":3,"max":[1,0,0,0,0,1,0,0,0,0,1,0,0,0.375,0,1],"min":[1,0,0,0,0,1,0,0,0,0,1,0,0,-0.875,0,1],"type":"MAT4"},{"bufferView":7,"componentType":5126,"count":3,"max":[1],"min":[0],"type":"SCALAR"},{"bufferView":8,"componentType":5126,"count":3,"max":[0,0,0.27563735842704773,1],"min":[0,0,0,0.9612616896629333],"type":"VEC4"},{"bufferView":9,"componentType":5126,"count":3,"max":[1],"min":[0],"type":"SCALAR"},{"bufferView":10,"componentType":5126,"count":3,"max":[0,0,0.10452846437692642,1],"min":[0,0,0,0.9945219159126282],"type":"VEC4"},{"bufferView":11,"componentType":5126,"count":3,"max":[1],"min":[0],"type":"SCALAR"},{"bufferView":12,"componentType":5126,"count":3,"max":[0,0,0.3214394748210907,1],"min":[0,0,0,0.9469301104545593],"type":"VEC4"}],"materials":[{"pbrMetallicRoughness":{"metallicFactor":0,"roughnessFactor":1,"baseColorTexture":{"index":0}},"alphaMode":"MASK","alphaCutoff":0.05,"doubleSided":true}],"textures":[{"sampler":0,"source":0,"name":"levitating_book.png"}],"samplers":[{"magFilter":9728,"minFilter":9728,"wrapS":33071,"wrapT":33071}],"images":[{"mimeType":"image/png","name":"levitating_book.png","uri":"levitating_book.png"}],"meshes":[{"primitives":[{"mode":4,"attributes":{"POSITION":0,"NORMAL":1,"TEXCOORD_0":2,"JOINTS_0":3,"WEIGHTS_0":4},"indices":5,"material":0}]}],"skins":[{"inverseBindMatrices":6,"joints":[2,1,0],"skeleton":2}],"animations":[{"name":"levitate","samplers":[{"input":7,"output":8,"interpolation":"LINEAR"},{"input":9,"output":10,"interpolation":"LINEAR"},{"input":11,"output":12,"interpolation":"LINEAR"}],"channels":[{"sampler":0,"target":{"node":2,"path":"rotation"}},{"sampler":1,"target":{"node":1,"path":"rotation"}},{"sampler":2,"target":{"node":0,"path":"rotation"}}]}]}