{"asset":{"version":"2.0","generator":"Blockbench 5.0.7 glTF exporter"},"scenes":[{"nodes":[12,15,18],"name":"blockbench_export"}],"scene":0,"nodes":[{"translation":[0,-1.5,0],"name":"Head","mesh":0},{"translation":[0,-1.5,0],"name":"Hat Layer","mesh":1},{"translation":[0,0.75,0],"name":"Head","children":[0,1]},{"translation":[0,-1.5,0],"name":"Body","mesh":2},{"translation":[0,-1.5,0],"name":"Body Layer","mesh":3},{"translation":[0,0.75,0],"name":"Body","children":[3,4]},{"translation":[-0.3125,-1.375,0],"name":"Right Arm","mesh":4},{"translation":[-0.3125,-1.375,0],"name":"Right Arm Layer","mesh":5},{"translation":[0.3125,0.625,0],"name":"RightArm","children":[6,7]},{"translation":[0.3125,-1.375,0],"name":"Left Arm","mesh":6},{"translation":[0.3125,-1.375,0],"name":"Left Arm Layer","mesh":7},{"translation":[-0.3125,0.625,0],"name":"LeftArm","children":[9,10]},{"translation":[0,0.75,0],"name":"Waist","children":[2,5,8,11]},{"translation":[-0.11875,-0.75,0],"name":"Right Leg","mesh":8},{"translation":[-0.11875,-0.75,0],"name":"Right Leg Layer","mesh":9},{"translation":[0.11875,0.75,0],"name":"RightLeg","children":[13,14]},{"translation":[0.11875,-0.75,0],"name":"Left Leg","mesh":10},{"translation":[0.11875,-0.75,0],"name":"Left Leg Layer","mesh":11},{"translation":[-0.11875,0.75,0],"name":"LeftLeg","children":[16,17]}],"bufferViews":[{"buffer":0,"byteOffset":0,"byteLength":288,"target":34962,"byteStride":12},{"buffer":0,"byteOffset":288,"byteLength":288,"target":34962,"byteStride":12},{"buffer":0,"byteOffset":576,"byteLength":192,"target":34962,"byteStride":8},{"buffer":0,"byteOffset":768,"byteLength":72,"target":34963},{"buffer":0,"byteOffset":840,"byteLength":288,"target":34962,"byteStride":12},{"buffer":0,"byteOffset":1128,"byteLength":288,"target":34962,"byteStride":12},{"buffer":0,"byteOffset":1416,"byteLength":192,"target":34962,"byteStride":8},{"buffer":0,"byteOffset":1608,"byteLength":72,"target":34963},{"buffer":0,"byteOffset":1680,"byteLength":288,"target":34962,"byteStride":12},{"buffer":0,"byteOffset":1968,"byteLength":288,"target":34962,"byteStride":12},{"buffer":0,"byteOffset":2256,"byteLength":192,"target":34962,"byteStride":8},{"buffer":0,"byteOffset":2448,"byteLength":72,"target":34963},{"buffer":0,"byteOffset":2520,"byteLength":288,"target":34962,"byteStride":12},{"buffer":0,"byteOffset":2808,"byteLength":288,"target":34962,"byteStride":12},{"buffer":0,"byteOffset":3096,"byteLength":192,"target":34962,"byteStride":8},{"buffer":0,"byteOffset":3288,"byteLength":72,"target":34963},{"buffer":0,"byteOffset":3360,"byteLength":288,"target":34962,"byteStride":12},{"buffer":0,"byteOffset":3648,"byteLength":288,"target":34962,"byteStride":12},{"buffer":0,"byteOffset":3936,"byteLength":192,"target":34962,"byteStride":8},{"buffer":0,"byteOffset":4128,"byteLength":72,"target":34963},{"buffer":0,"byteOffset":4200,"byteLength":288,"target":34962,"byteStride":12},{"buffer":0,"byteOffset":4488,"byteLength":288,"target":34962,"byteStride":12},{"buffer":0,"byteOffset":4776,"byteLength":192,"target":34962,"byteStride":8},{"buffer":0,"byteOffset":4968,"byteLength":72,"target":34963},{"buffer":0,"byteOffset":5040,"byteLength":288,"target":34962,"byteStride":12},{"buffer":0,"byteOffset":5328,"byteLength":288,"target":34962,"byteStride":12},{"buffer":0,"byteOffset":5616,"byteLength":192,"target":34962,"byteStride":8},{"buffer":0,"byteOffset":5808,"byteLength":72,"target":34963},{"buffer":0,"byteOffset":5880,"byteLength":288,"target":34962,"byteStride":12},{"buffer":0,"byteOffset":6168,"byteLength":288,"target":34962,"byteStride":12},{"buffer":0,"byteOffset":6456,"byteLength":192,"target":34962,"byteStride":8},{"buffer":0,"byteOffset":6648,"byteLength":72,"target":34963},{"buffer":0,"byteOffset":6720,"byteLength":288,"target":34962,"byteStride":12},{"buffer":0,"byteOffset":7008,"byteLength":288,"target":34962,"byteStride":12},{"buffer":0,"byteOffset":7296,"byteLength":192,"target":34962,"byteStride":8},{"buffer":0,"byteOffset":7488,"byteLength":72,"target":34963},{"buffer":0,"byteOffset":7560,"byteLength":288,"target":34962,"byteStride":12},{"buffer":0,"byteOffset":7848,"byteLength":288,"target":34962,"byteStride":12},{"buffer":0,"byteOffset":8136,"byteLength":192,"target":34962,"byteStride":8},{"buffer":0,"byteOffset":8328,"byteLength":72,"target":34963},{"buffer":0,"byteOffset":8400,"byteLength":288,"target":34962,"byteStride":12},{"buffer":0,"byteOffset":8688,"byteLength":288,"target":34962,"byteStride":12},{"buffer":0,"byteOffset":8976,"byteLength":192,"target":34962,"byteStride":8},{"buffer":0,"byteOffset":9168,"byteLength":72,"target":34963},{"buffer":0,"byteOffset":9240,"byteLength":288,"target":34962,"byteStride":12},{"buffer":0,"byteOffset":9528,"byteLength":288,"target":34962,"byteStride":12},{"buffer":0,"byteOffset":9816,"byteLength":192,"target":34962,"byteStride":8},{"buffer":0,"byteOffset":10008,"byteLength":72,"target":34963},{"buffer":0,"byteOffset":10080,"byteLength":12},{"buffer":0,"byteOffset":10092,"byteLength":48},{"buffer":0,"byteOffset":10140,"byteLength":12},{"buffer":0,"byteOffset":10152,"byteLength":36},{"buffer":0,"byteOffset":10188,"byteLength":12},{"buffer":0,"byteOffset":10200,"byteLength":48},{"buffer":0,"byteOffset":10248,"byteLength":12},{"buffer":0,"byteOffset":10260,"byteLength":48},{"buffer":0,"byteOffset":10308,"byteLength":12},{"buffer":0,"byteOffset":10320,"byteLength":48},{"buffer":0,"byteOffset":10368,"byteLength":12},{"buffer":0,"byteOffset":10380,"byteLength":48},{"buffer":0,"byteOffset":10428,"byteLength":12},{"buffer":0,"byteOffset":10440,"byteLength":48},{"buffer":0,"byteOffset":10488,"byteLength":24},{"buffer":0,"byteOffset":10512,"byteLength":96},{"buffer":0,"byteOffset":10608,"byteLength":12},{"buffer":0,"byteOffset":10620,"byteLength":36},{"buffer":0,"byteOffset":10656,"byteLength":24},{"buffer":0,"byteOffset":10680,"byteLength":96},{"buffer":0,"byteOffset":10776,"byteLength":24},{"buffer":0,"byteOffset":10800,"byteLength":96},{"buffer":0,"byteOffset":10896,"byteLength":20},{"buffer":0,"byteOffset":10916,"byteLength":60},{"buffer":0,"byteOffset":10976,"byteLength":16},{"buffer":0,"byteOffset":10992,"byteLength":64},{"buffer":0,"byteOffset":11056,"byteLength":16},{"buffer":0,"byteOffset":11072,"byteLength":64},{"buffer":0,"byteOffset":11136,"byteLength":16},{"buffer":0,"byteOffset":11152,"byteLength":64},{"buffer":0,"byteOffset":11216,"byteLength":12},{"buffer":0,"byteOffset":11228,"byteLength":48},{"buffer":0,"byteOffset":11276,"byteLength":12},{"buffer":0,"byteOffset":11288,"byteLength":48},{"buffer":0,"byteOffset":11336,"byteLength":20},{"buffer":0,"byteOffset":11356,"byteLength":80},{"buffer":0,"byteOffset":11436,"byteLength":20},{"buffer":0,"byteOffset":11456,"byteLength":80},{"buffer":0,"byteOffset":11536,"byteLength":20},{"buffer":0,"byteOffset":11556,"byteLength":80},{"buffer":0,"byteOffset":11636,"byteLength":24},{"buffer":0,"byteOffset":11660,"byteLength":96},{"buffer":0,"byteOffset":11756,"byteLength":20},{"buffer":0,"byteOffset":11776,"byteLength":80},{"buffer":0,"byteOffset":11856,"byteLength":20},{"buffer":0,"byteOffset":11876,"byteLength":80},{"buffer":0,"byteOffset":11956,"byteLength":12},{"buffer":0,"byteOffset":11968,"byteLength":48},{"buffer":0,"byteOffset":12016,"byteLength":12},{"buffer":0,"byteOffset":12028,"byteLength":48},{"buffer":0,"byteOffset":12076,"byteLength":12},{"buffer":0,"byteOffset":12088,"byteLength":48},{"buffer":0,"byteOffset":12136,"byteLength":12},{"buffer":0,"byteOffset":12148,"byteLength":48},{"buffer":0,"byteOffset":12196,"byteLength":16},{"buffer":0,"byteOffset":12212,"byteLength":64},{"buffer":0,"byteOffset":12276,"byteLength":12},{"buffer":0,"byteOffset":12288,"byteLength":36},{"buffer":0,"byteOffset":12324,"byteLength":16},{"buffer":0,"byteOffset":12340,"byteLength":64},{"buffer":0,"byteOffset":12404,"byteLength":12},{"buffer":0,"byteOffset":12416,"byteLength":48},{"buffer":0,"byteOffset":12464,"byteLength":12},{"buffer":0,"byteOffset":12476,"byteLength":48},{"buffer":0,"byteOffset":12524,"byteLength":12},{"buffer":0,"byteOffset":12536,"byteLength":48},{"buffer":0,"byteOffset":12584,"byteLength":12},{"buffer":0,"byteOffset":12596,"byteLength":36},{"buffer":0,"byteOffset":12632,"byteLength":12},{"buffer":0,"byteOffset":12644,"byteLength":48},{"buffer":0,"byteOffset":12692,"byteLength":12},{"buffer":0,"byteOffset":12704,"byteLength":36}],"buffers":[{"byteLength":12740,"uri":"data:application/octet-stream;base64,"}],"accessors":[{"bufferView":0,"componentType":5126,"count":24,"max":[0.25,2,0.25],"min":[-0.25,1.5,-0.25],"type":"VEC3"},{"bufferView":1,"componentType":5126,"count":24,"max":[1,1,1],"min":[-1,-1,-1],"type":"VEC3"},{"bufferView":2,"componentType":5126,"count":24,"max":[0.499755859375,0.249755859375],"min":[0.000244140625,0.000244140625],"type":"VEC2"},{"bufferView":3,"componentType":5123,"count":36,"max":[23],"min":[0],"type":"SCALAR"},{"bufferView":4,"componentType":5126,"count":24,"max":[0.28125,2.03125,0.28125],"min":[-0.28125,1.46875,-0.28125],"type":"VEC3"},{"bufferView":5,"componentType":5126,"count":24,"max":[1,1,1],"min":[-1,-1,-1],"type":"VEC3"},{"bufferView":6,"componentType":5126,"count":24,"max":[0.999755859375,0.249755859375],"min":[0.500244140625,0.000244140625],"type":"VEC2"},{"bufferView":7,"componentType":5123,"count":36,"max":[23],"min":[0],"type":"SCALAR"},{"bufferView":8,"componentType":5126,"count":24,"max":[0.25,1.5,0.125],"min":[-0.25,0.75,-0.125],"type":"VEC3"},{"bufferView":9,"componentType":5126,"count":24,"max":[1,1,1],"min":[-1,-1,-1],"type":"VEC3"},{"bufferView":10,"componentType":5126,"count":24,"max":[0.624755859375,0.499755859375],"min":[0.250244140625,0.250244140625],"type":"VEC2"},{"bufferView":11,"componentType":5123,"count":36,"max":[23],"min":[0],"type":"SCALAR"},{"bufferView":12,"componentType":5126,"count":24,"max":[0.265625,1.515625,0.140625],"min":[-0.265625,0.734375,-0.140625],"type":"VEC3"},{"bufferView":13,"componentType":5126,"count":24,"max":[1,1,1],"min":[-1,-1,-1],"type":"VEC3"},{"bufferView":14,"componentType":5126,"count":24,"max":[0.624755859375,0.749755859375],"min":[0.250244140625,0.500244140625],"type":"VEC2"},{"bufferView":15,"componentType":5123,"count":36,"max":[23],"min":[0],"type":"SCALAR"},{"bufferView":16,"componentType":5126,"count":24,"max":[0.5,1.5,0.125],"min":[0.25,0.75,-0.125],"type":"VEC3"},{"bufferView":17,"componentType":5126,"count":24,"max":[1,1,1],"min":[-1,-1,-1],"type":"VEC3"},{"bufferView":18,"componentType":5126,"count":24,"max":[0.874755859375,0.499755859375],"min":[0.625244140625,0.250244140625],"type":"VEC2"},{"bufferView":19,"componentType":5123,"count":36,"max":[23],"min":[0],"type":"SCALAR"},{"bufferView":20,"componentType":5126,"count":24,"max":[0.515625,1.515625,0.140625],"min":[0.234375,0.734375,-0.140625],"type":"VEC3"},{"bufferView":21,"componentType":5126,"count":24,"max":[1,1,1],"min":[-1,-1,-1],"type":"VEC3"},{"bufferView":22,"componentType":5126,"count":24,"max":[0.874755859375,0.749755859375],"min":[0.625244140625,0.500244140625],"type":"VEC2"},{"bufferView":23,"componentType":5123,"count":36,"max":[23],"min":[0],"type":"SCALAR"},{"bufferView":24,"componentType":5126,"count":24,"max":[-0.25,1.5,0.125],"min":[-0.5,0.75,-0.125],"type":"VEC3"},{"bufferView":25,"componentType":5126,"count":24,"max":[1,1,1],"min":[-1,-1,-1],"type":"VEC3"},{"bufferView":26,"componentType":5126,"count":24,"max":[0.749755859375,0.999755859375],"min":[0.500244140625,0.750244140625],"type":"VEC2"},{"bufferView":27,"componentType":5123,"count":36,"max":[23],"min":[0],"type":"SCALAR"},{"bufferView":28,"componentType":5126,"count":24,"max":[-0.234375,1.515625,0.140625],"min":[-0.515625,0.734375,-0.140625],"type":"VEC3"},{"bufferView":29,"componentType":5126,"count":24,"max":[1,1,1],"min":[-1,-1,-1],"type":"VEC3"},{"bufferView":30,"componentType":5126,"count":24,"max":[0.999755859375,0.999755859375],"min":[0.750244140625,0.750244140625],"type":"VEC2"},{"bufferView":31,"componentType":5123,"count":36,"max":[23],"min":[0],"type":"SCALAR"},{"bufferView":32,"componentType":5126,"count":24,"max":[0.24375000596046448,0.75,0.125],"min":[-0.0062500000931322575,0,-0.125],"type":"VEC3"},{"bufferView":33,"componentType":5126,"count":24,"max":[1,1,1],"min":[-1,-1,-1],"type":"VEC3"},{"bufferView":34,"componentType":5126,"count":24,"max":[0.249755859375,0.499755859375],"min":[0.000244140625,0.250244140625],"type":"VEC2"},{"bufferView":35,"componentType":5123,"count":36,"max":[23],"min":[0],"type":"SCALAR"},{"bufferView":36,"componentType":5126,"count":24,"max":[0.2593750059604645,0.765625,0.140625],"min":[-0.02187499962747097,-0.015625,-0.140625],"type":"VEC3"},{"bufferView":37,"componentType":5126,"count":24,"max":[1,1,1],"min":[-1,-1,-1],"type":"VEC3"},{"bufferView":38,"componentType":5126,"count":24,"max":[0.249755859375,0.749755859375],"min":[0.000244140625,0.500244140625],"type":"VEC2"},{"bufferView":39,"componentType":5123,"count":36,"max":[23],"min":[0],"type":"SCALAR"},{"bufferView":40,"componentType":5126,"count":24,"max":[0.0062500000931322575,0.75,0.125],"min":[-0.24375000596046448,0,-0.125],"type":"VEC3"},{"bufferView":41,"componentType":5126,"count":24,"max":[1,1,1],"min":[-1,-1,-1],"type":"VEC3"},{"bufferView":42,"componentType":5126,"count":24,"max":[0.499755859375,0.999755859375],"min":[0.250244140625,0.750244140625],"type":"VEC2"},{"bufferView":43,"componentType":5123,"count":36,"max":[23],"min":[0],"type":"SCALAR"},{"bufferView":44,"componentType":5126,"count":24,"max":[0.02187499962747097,0.765625,0.140625],"min":[-0.2593750059604645,-0.015625,-0.140625],"type":"VEC3"},{"bufferView":45,"componentType":5126,"count":24,"max":[1,1,1],"min":[-1,-1,-1],"type":"VEC3"},{"bufferView":46,"componentType":5126,"count":24,"max":[0.249755859375,0.999755859375],"min":[0.000244140625,0.750244140625],"type":"VEC2"},{"bufferView":47,"componentType":5123,"count":36,"max":[23],"min":[0],"type":"SCALAR"},{"bufferView":48,"componentType":5126,"count":3,"max":[2],"min":[0],"type":"SCALAR"},{"bufferView":49,"componentType":5126,"count":3,"max":[0,0.0017453257460147142,0.0017453257460147142,1],"min":[-0.0000030461710593954194,0,0,0.9999969601631165],"type":"VEC4"},{"bufferView":50,"componentType":5126,"count":3,"max":[2],"min":[0],"type":"SCALAR"},{"bufferView":51,"componentType":5126,"count":3,"max":[0,0.75,0],"min":[0,0.7493749856948853,0],"type":"VEC3"},{"bufferView":52,"componentType":5126,"count":3,"max":[1.5],"min":[0],"type":"SCALAR"},{"bufferView":53,"componentType":5126,"count":3,"max":[0.004363309126347303,0,0,0.9999904632568359],"min":[-0.004363309126347303,0,0,0.9999904632568359],"type":"VEC4"},{"bufferView":54,"componentType":5126,"count":3,"max":[2],"min":[0],"type":"SCALAR"},{"bufferView":55,"componentType":5126,"count":3,"max":[0.01308959536254406,0,0,0.9999143481254578],"min":[-0.01308959536254406,0,0,0.9999143481254578],"type":"VEC4"},{"bufferView":56,"componentType":5126,"count":3,"max":[2],"min":[0],"type":"SCALAR"},{"bufferView":57,"componentType":5126,"count":3,"max":[0.01308959536254406,0,0,0.9999143481254578],"min":[-0.01308959536254406,0,0,0.9999143481254578],"type":"VEC4"},{"bufferView":58,"componentType":5126,"count":3,"max":[2.25],"min":[0],"type":"SCALAR"},{"bufferView":59,"componentType":5126,"count":3,"max":[0.004363309126347303,0.004363309126347303,0,0.9999904632568359],"min":[0,0,0,0.9999904632568359],"type":"VEC4"},{"bufferView":60,"componentType":5126,"count":3,"max":[2.25],"min":[0],"type":"SCALAR"},{"bufferView":61,"componentType":5126,"count":3,"max":[0.004363309126347303,0,0,0.9999904632568359],"min":[0,-0.004363309126347303,0,0.9999904632568359],"type":"VEC4"},{"bufferView":62,"componentType":5126,"count":6,"max":[2],"min":[0],"type":"SCALAR"},{"bufferView":63,"componentType":5126,"count":6,"max":[0,0,0,1],"min":[-0.24192190170288086,0,0,0.9702957272529602],"type":"VEC4"},{"bufferView":64,"componentType":5126,"count":3,"max":[2],"min":[0],"type":"SCALAR"},{"bufferView":65,"componentType":5126,"count":3,"max":[0,0.75,0],"min":[0,0.7493749856948853,0],"type":"VEC3"},{"bufferView":66,"componentType":5126,"count":6,"max":[1.5],"min":[0],"type":"SCALAR"},{"bufferView":67,"componentType":5126,"count":6,"max":[0.004363309126347303,0.10886687785387039,0,0.9999904632568359],"min":[-0.004363309126347303,0,-0.0001717232953524217,0.9940563440322876],"type":"VEC4"},{"bufferView":68,"componentType":5126,"count":6,"max":[2],"min":[0],"type":"SCALAR"},{"bufferView":69,"componentType":5126,"count":6,"max":[0.3085218667984009,0,0,0.9999143481254578],"min":[-0.01308959536254406,-0.2588805854320526,-0.6384545564651489,0.7011692523956299],"type":"VEC4"},{"bufferView":70,"componentType":5126,"count":5,"max":[2],"min":[0],"type":"SCALAR"},{"bufferView":71,"componentType":5126,"count":5,"max":[0.40625,0.625,0],"min":[0.3125,0.625,0],"type":"VEC3"},{"bufferView":72,"componentType":5126,"count":4,"max":[2],"min":[0],"type":"SCALAR"},{"bufferView":73,"componentType":5126,"count":4,"max":[0.11282391846179962,0.045943114906549454,0,0.9999143481254578],"min":[-0.032931603491306305,0,-0.057428501546382904,0.9908894896507263],"type":"VEC4"},{"bufferView":74,"componentType":5126,"count":4,"max":[2],"min":[0],"type":"SCALAR"},{"bufferView":75,"componentType":5126,"count":4,"max":[0.023707671090960503,0,0.0003807222528848797,0.9999904632568359],"min":[0.004363309126347303,-0.04144452512264252,-0.0033696540631353855,0.9988538026809692],"type":"VEC4"},{"bufferView":76,"componentType":5126,"count":4,"max":[2.0416667461395264],"min":[0],"type":"SCALAR"},{"bufferView":77,"componentType":5126,"count":4,"max":[0.004363309126347303,0.04146745055913925,0,0.9999904632568359],"min":[0,0,-0.02189020998775959,0.998894989490509],"type":"VEC4"},{"bufferView":78,"componentType":5126,"count":3,"max":[0.5],"min":[0],"type":"SCALAR"},{"bufferView":79,"componentType":5126,"count":3,"max":[0,0,0,1],"min":[-0.02181488461792469,0,0,0.9997619986534119],"type":"VEC4"},{"bufferView":80,"componentType":5126,"count":3,"max":[0.5],"min":[0],"type":"SCALAR"},{"bufferView":81,"componentType":5126,"count":3,"max":[0.02181488461792469,0,0,0.9997619986534119],"min":[-0.02181488461792469,0,0,0.9997619986534119],"type":"VEC4"},{"bufferView":82,"componentType":5126,"count":5,"max":[1.0833333730697632],"min":[0],"type":"SCALAR"},{"bufferView":83,"componentType":5126,"count":5,"max":[0.19008290767669678,0,0.016630100086331367,1],"min":[-0.19062738120555878,-0.08555444329977036,-0.008322971872985363,0.9778918027877808],"type":"VEC4"},{"bufferView":84,"componentType":5126,"count":5,"max":[1.0416666269302368],"min":[0],"type":"SCALAR"},{"bufferView":85,"componentType":5126,"count":5,"max":[0.19008290767669678,0.08555444329977036,0.008322971872985363,1],"min":[-0.19062738120555878,0,-0.016630100086331367,0.9778918027877808],"type":"VEC4"},{"bufferView":86,"componentType":5126,"count":5,"max":[1.0833333730697632],"min":[0],"type":"SCALAR"},{"bufferView":87,"componentType":5126,"count":5,"max":[0.03486628085374832,0,0.0015222947113215923,1],"min":[0,-0.04359281435608864,0,0.998439610004425],"type":"VEC4"},{"bufferView":88,"componentType":5126,"count":6,"max":[1.125],"min":[0],"type":"SCALAR"},{"bufferView":89,"componentType":5126,"count":6,"max":[0,0,0,1],"min":[-0.25460195541381836,0,0,0.9670459628105164],"type":"VEC4"},{"bufferView":90,"componentType":5126,"count":5,"max":[0.5],"min":[0],"type":"SCALAR"},{"bufferView":91,"componentType":5126,"count":5,"max":[0,0,0,1],"min":[-0.02181488461792469,0,0,0.9997619986534119],"type":"VEC4"},{"bufferView":92,"componentType":5126,"count":5,"max":[0.5],"min":[0],"type":"SCALAR"},{"bufferView":93,"componentType":5126,"count":5,"max":[0.02181488461792469,0,0,0.9997619986534119],"min":[-0.02181488461792469,0,0,0.9997619986534119],"type":"VEC4"},{"bufferView":94,"componentType":5126,"count":3,"max":[0.5],"min":[0],"type":"SCALAR"},{"bufferView":95,"componentType":5126,"count":3,"max":[0.2981332242488861,0,0.03924998268485069,0.9537169337272644],"min":[-0.30070579051971436,-0.12448504567146301,0,0.9455577731132507],"type":"VEC4"},{"bufferView":96,"componentType":5126,"count":3,"max":[0.5],"min":[0],"type":"SCALAR"},{"bufferView":97,"componentType":5126,"count":3,"max":[0.2981332242488861,0.12448504567146301,0,0.9537169337272644],"min":[-0.30070579051971436,0,-0.03924998268485069,0.9455577731132507],"type":"VEC4"},{"bufferView":98,"componentType":5126,"count":3,"max":[0.5],"min":[0],"type":"SCALAR"},{"bufferView":99,"componentType":5126,"count":3,"max":[0.379409521818161,0,0.049950212240219116,0.9238795042037964],"min":[-0.3826834261417389,-0.12059047818183899,0,0.9159756302833557],"type":"VEC4"},{"bufferView":100,"componentType":5126,"count":3,"max":[0.5],"min":[0],"type":"SCALAR"},{"bufferView":101,"componentType":5126,"count":3,"max":[0.379409521818161,0.12059047818183899,0,0.9238795042037964],"min":[-0.3826834261417389,0,-0.049950212240219116,0.9159756302833557],"type":"VEC4"},{"bufferView":102,"componentType":5126,"count":4,"max":[0.25],"min":[0.0416666679084301],"type":"SCALAR"},{"bufferView":103,"componentType":5126,"count":4,"max":[0,0,0,1],"min":[-0.02181488461792469,0,0,0.9997619986534119],"type":"VEC4"},{"bufferView":104,"componentType":5126,"count":3,"max":[0.25],"min":[0],"type":"SCALAR"},{"bufferView":105,"componentType":5126,"count":3,"max":[0,0.7549999952316284,0.004999999888241291],"min":[0,0.7450000047683716,-0.004999999888241291],"type":"VEC3"},{"bufferView":106,"componentType":5126,"count":4,"max":[0.25],"min":[0],"type":"SCALAR"},{"bufferView":107,"componentType":5126,"count":4,"max":[0.02181488461792469,0,0,0.9997619986534119],"min":[-0.02181488461792469,0,0,0.9997619986534119],"type":"VEC4"},{"bufferView":108,"componentType":5126,"count":3,"max":[0.25],"min":[0],"type":"SCALAR"},{"bufferView":109,"componentType":5126,"count":3,"max":[0.2981332242488861,0,0.03924998268485069,0.9537169337272644],"min":[-0.30070579051971436,-0.12448504567146301,0,0.9455577731132507],"type":"VEC4"},{"bufferView":110,"componentType":5126,"count":3,"max":[0.25],"min":[0],"type":"SCALAR"},{"bufferView":111,"componentType":5126,"count":3,"max":[0.2981332242488861,0.12448504567146301,0,0.9537169337272644],"min":[-0.30070579051971436,0,-0.03924998268485069,0.9455577731132507],"type":"VEC4"},{"bufferView":112,"componentType":5126,"count":3,"max":[0.25],"min":[0],"type":"SCALAR"},{"bufferView":113,"componentType":5126,"count":3,"max":[0.379409521818161,0,0.049950212240219116,0.9238795042037964],"min":[-0.3826834261417389,-0.12059047818183899,0,0.9159756302833557],"type":"VEC4"},{"bufferView":114,"componentType":5126,"count":3,"max":[0.25],"min":[0],"type":"SCALAR"},{"bufferView":115,"componentType":5126,"count":3,"max":[0.11874999850988388,0.7674999833106995,0.036249998956918716],"min":[0.11874999850988388,0.7325000166893005,-0.036249998956918716],"type":"VEC3"},{"bufferView":116,"componentType":5126,"count":3,"max":[0.25],"min":[0],"type":"SCALAR"},{"bufferView":117,"componentType":5126,"count":3,"max":[0.379409521818161,0.12059047818183899,0,0.9238795042037964],"min":[-0.3826834261417389,0,-0.049950212240219116,0.9159756302833557],"type":"VEC4"},{"bufferView":118,"componentType":5126,"count":3,"max":[0.25],"min":[0],"type":"SCALAR"},{"bufferView":119,"componentType":5126,"count":3,"max":[-0.11874999850988388,0.7674999833106995,0.036249998956918716],"min":[-0.11874999850988388,0.7325000166893005,-0.036249998956918716],"type":"VEC3"}],"materials":[{"pbrMetallicRoughness":{"metallicFactor":0,"roughnessFactor":1,"baseColorTexture":{"index":0}},"alphaMode":"MASK","alphaCutoff":0.05,"doubleSided":true}],"textures":[{"sampler":0,"source":0,"name":"steve.png"}],"samplers":[{"magFilter":9728,"minFilter":9728,"wrapS":33071,"wrapT":33071}],"images":[{"mimeType":"image/png","name":"player.png","uri":"player.png"}],"meshes":[{"primitives":[{"mode":4,"attributes":{"POSITION":0,"NORMAL":1,"TEXCOORD_0":2},"indices":3,"material":0}]},{"primitives":[{"mode":4,"attributes":{"POSITION":4,"NORMAL":5,"TEXCOORD_0":6},"indices":7,"material":0}]},{"primitives":[{"mode":4,"attributes":{"POSITION":8,"NORMAL":9,"TEXCOORD_0":10},"indices":11,"material":0}]},{"primitives":[{"mode":4,"attributes":{"POSITION":12,"NORMAL":13,"TEXCOORD_0":14},"indices":15,"material":0}]},{"primitives":[{"mode":4,"attributes":{"POSITION":16,"NORMAL":17,"TEXCOORD_0":18},"indices":19,"material":0}]},{"primitives":[{"mode":4,"attributes":{"POSITION":20,"NORMAL":21,"TEXCOORD_0":22},"indices":23,"material":0}]},{"primitives":[{"mode":4,"attributes":{"POSITION":24,"NORMAL":25,"TEXCOORD_0":26},"indices":27,"material":0}]},{"primitives":[{"mode":4,"attributes":{"POSITION":28,"NORMAL":29,"TEXCOORD_0":30},"indices":31,"material":0}]},{"primitives":[{"mode":4,"attributes":{"POSITION":32,"NORMAL":33,"TEXCOORD_0":34},"indices":35,"material":0}]},{"primitives":[{"mode":4,"attributes":{"POSITION":36,"NORMAL":37,"TEXCOORD_0":38},"indices":39,"material":0}]},{"primitives":[{"mode":4,"attributes":{"POSITION":40,"NORMAL":41,"TEXCOORD_0":42},"indices":43,"material":0}]},{"primitives":[{"mode":4,"attributes":{"POSITION":44,"NORMAL":45,"TEXCOORD_0":46},"indices":47,"material":0}]}],"animations":[{"name":"animation.player.still","samplers":[{"input":48,"output":49,"interpolation":"LINEAR"},{"input":50,"output":51,"interpolation":"LINEAR"},{"input":52,"output":53,"interpolation":"LINEAR"},{"input":54,"output":55,"interpolation":"LINEAR"},{"input":56,"output":57,"interpolation":"LINEAR"},{"input":58,"output":59,"interpolation":"LINEAR"},{"input":60,"output":61,"interpolation":"LINEAR"}],"channels":[{"sampler":0,"target":{"node":2,"path":"rotation"}},{"sampler":1,"target":{"node":2,"path":"translation"}},{"sampler":2,"target":{"node":5,"path":"rotation"}},{"sampler":3,"target":{"node":8,"path":"rotation"}},{"sampler":4,"target":{"node":11,"path":"rotation"}},{"sampler":5,"target":{"node":15,"path":"rotation"}},{"sampler":6,"target":{"node":18,"path":"rotation"}}]},{"name":"animation.player.eat","samplers":[{"input":62,"output":63,"interpolation":"LINEAR"},{"input":64,"output":65,"interpolation":"LINEAR"},{"input":66,"output":67,"interpolation":"LINEAR"},{"input":68,"output":69,"interpolation":"LINEAR"},{"input":70,"output":71,"interpolation":"LINEAR"},{"input":72,"output":73,"interpolation":"LINEAR"},{"input":74,"output":75,"interpolation":"LINEAR"},{"input":76,"output":77,"interpolation":"LINEAR"}],"channels":[{"sampler":0,"target":{"node":2,"path":"rotation"}},{"sampler":1,"target":{"node":2,"path":"translation"}},{"sampler":2,"target":{"node":5,"path":"rotation"}},{"sampler":3,"target":{"node":8,"path":"rotation"}},{"sampler":4,"target":{"node":8,"path":"translation"}},{"sampler":5,"target":{"node":11,"path":"rotation"}},{"sampler":6,"target":{"node":15,"path":"rotation"}},{"sampler":7,"target":{"node":18,"path":"rotation"}}]},{"name":"animation.player.garden_grave","samplers":[{"input":78,"output":79,"interpolation":"LINEAR"},{"input":80,"output":81,"interpolation":"LINEAR"},{"input":82,"output":83,"interpolation":"LINEAR"},{"input":84,"output":85,"interpolation":"LINEAR"},{"input":86,"output":87,"interpolation":"LINEAR"},{"input":88,"output":89,"interpolation":"LINEAR"}],"channels":[{"sampler":0,"target":{"node":2,"path":"rotation"}},{"sampler":1,"target":{"node":5,"path":"rotation"}},{"sampler":2,"target":{"node":8,"path":"rotation"}},{"sampler":3,"target":{"node":11,"path":"rotation"}},{"sampler":4,"target":{"node":15,"path":"rotation"}},{"sampler":5,"target":{"node":18,"path":"rotation"}}]},{"name":"animation.player.walk","samplers":[{"input":90,"output":91,"interpolation":"LINEAR"},{"input":92,"output":93,"interpolation":"LINEAR"},{"input":94,"output":95,"interpolation":"LINEAR"},{"input":96,"output":97,"interpolation":"LINEAR"},{"input":98,"output":99,"interpolation":"LINEAR"},{"input":100,"output":101,"interpolation":"LINEAR"}],"channels":[{"sampler":0,"target":{"node":2,"path":"rotation"}},{"sampler":1,"target":{"node":5,"path":"rotation"}},{"sampler":2,"target":{"node":8,"path":"rotation"}},{"sampler":3,"target":{"node":11,"path":"rotation"}},{"sampler":4,"target":{"node":15,"path":"rotation"}},{"sampler":5,"target":{"node":18,"path":"rotation"}}]},{"name":"animation.player.run","samplers":[{"input":102,"output":103,"interpolation":"LINEAR"},{"input":104,"output":105,"interpolation":"LINEAR"},{"input":106,"output":107,"interpolation":"LINEAR"},{"input":108,"output":109,"interpolation":"LINEAR"},{"input":110,"output":111,"interpolation":"LINEAR"},{"input":112,"output":113,"interpolation":"LINEAR"},{"input":114,"output":115,"interpolation":"LINEAR"},{"input":116,"output":117,"interpolation":"LINEAR"},{"input":118,"output":119,"interpolation":"LINEAR"}],"channels":[{"sampler":0,"target":{"node":2,"path":"rotation"}},{"sampler":1,"target":{"node":2,"path":"translation"}},{"sampler":2,"target":{"node":5,"path":"rotation"}},{"sampler":3,"target":{"node":8,"path":"rotation"}},{"sampler":4,"target":{"node":11,"path":"rotation"}},{"sampler":5,"target":{"node":15,"path":"rotation"}},{"sampler":6,"target":{"node":15,"path":"translation"}},{"sampler":7,"target":{"node":18,"path":"rotation"}},{"sampler":8,"target":{"node":18,"path":"translation"}}]}]}